<svg     width="250"
    height="250" class="css-1j8o68f">
<defs id="SvgjsDefs2827"></defs>
<g id="SvgjsG2828" featurekey="symbolFeature-0" transform="matrix(1.1456259119548309,0,0,1.1456259119548309,-7.263264086386235,-1.7184388679322464)" fill="#f90093"><title xmlns="http://www.w3.org/2000/svg">Artboard 14</title><path xmlns="http://www.w3.org/2000/svg" d="M88.34,31.19,85.56,34A40.31,40.31,0,0,1,56.08,98.41q-1.38.09-2.74.09A40.15,40.15,0,0,1,23.41,85.21a2.5,2.5,0,0,1,3.71-3.35A35.32,35.32,0,0,0,80.31,35.39,2.5,2.5,0,0,1,80.45,32l4.36-4.36a1.77,1.77,0,0,0-2.5-2.5l-4.53,4.53a2.5,2.5,0,0,1-3.27.23,35.21,35.21,0,0,0-17.18-6.82A2.5,2.5,0,0,1,55.1,20.6V12.54A2.5,2.5,0,0,1,57.6,10h2.29a1.77,1.77,0,0,0,0-3.54H46.77a1.77,1.77,0,0,0,0,3.54h2.29a2.5,2.5,0,0,1,2.5,2.5V20.6a2.5,2.5,0,0,1-2.22,2.48A35.36,35.36,0,0,0,28.06,33.51,2.5,2.5,0,1,1,24.48,30,40.41,40.41,0,0,1,46.56,18.43V15A6.77,6.77,0,0,1,46.77,1.5H59.89A6.77,6.77,0,0,1,60.1,15v3.39a40.24,40.24,0,0,1,15.63,6.21l3-3a6.77,6.77,0,1,1,9.58,9.57Zm-82,14.18a2.5,2.5,0,0,0,2.5,2.5H26.2a2.5,2.5,0,0,0,0-5H8.85A2.5,2.5,0,0,0,6.35,45.36ZM34.76,57.49a2.5,2.5,0,0,0-2.5-2.5H14.91a2.5,2.5,0,0,0,0,5H32.26A2.5,2.5,0,0,0,34.76,57.49ZM8.85,72.12H26.2a2.5,2.5,0,0,0,0-5H8.85a2.5,2.5,0,0,0,0,5ZM67.2,47.84l-6.41,6.41a8.45,8.45,0,1,1-3.54-3.54l6.41-6.41a2.5,2.5,0,1,1,3.54,3.54ZM56.76,58.18a3.43,3.43,0,1,0-3.43,3.43A3.44,3.44,0,0,0,56.76,58.18ZM53.33,87.93a29.76,29.76,0,1,0-21-50.8,2.5,2.5,0,0,0,3.54,3.54,24.77,24.77,0,1,1,0,35,2.5,2.5,0,0,0-3.54,3.54A29.68,29.68,0,0,0,53.33,87.93Z"></path></g><g id="SvgjsG2829" featurekey="nameFeature-0" transform="matrix(1.5436865338341552,0,0,1.5436865338341552,117.53010169308277,15.587217782733706)" fill="#ffffff"><path d="M10 15.8 l0 24.2 l-3.8 0 l0 -24.2 l-4.6 0 l0 -3.8 l12.52 0 l0 3.8 l-4.12 0 z M17.32 40 l0 -28 l3.76 0 l0 28 l-3.76 0 z M24.28 40 l0 -28 l5.44 0 l2.84 17.68 l2.84 -17.68 l5.48 0 l0 28 l-3.8 0 l0 -15.56 l-2.72 15.56 l-3.56 0 l-2.76 -15.56 l0 15.56 l-3.76 0 z M47.84 23.4 l4.16 0 l0 3.8 l-4.16 0 l0 9 l6.12 0 l0 3.8 l-9.88 0 l0 -28 l9.88 0 l0 3.8 l-6.12 0 l0 7.6 z M60.84 31.52 q-0.04 0.24 -0.04 0.48 l0 0.44 q0 1.16 0.28 2.02 t0.72 1.42 t0.98 0.82 t1.1 0.26 q0.92 0 1.64 -0.7 t0.72 -1.98 q0 -1.24 -0.88 -2.94 t-3.12 -3.82 q-0.96 -0.92 -1.9 -1.88 t-1.68 -2.04 t-1.24 -2.34 t-0.62 -2.78 q0 -0.16 -0.02 -0.3 t-0.02 -0.3 q0 -1.56 0.56 -2.78 t1.46 -2.06 t2.06 -1.28 t2.36 -0.44 q1.24 0 2.44 0.48 t2.14 1.48 t1.52 2.54 t0.58 3.62 l0 0.5 t-0.04 0.54 l-3.8 0 q0.04 -0.28 0.04 -0.54 l0 -0.5 q0 -2.36 -0.9 -3.38 t-1.98 -1.02 q-1.04 0 -1.84 0.78 t-0.8 2.18 l0 0.24 q0.08 0.96 0.46 1.84 t0.98 1.68 t1.34 1.56 t1.54 1.48 q2.92 2.8 4.12 5.22 t1.2 4.38 q0 1.44 -0.56 2.6 t-1.48 1.98 t-2.1 1.24 t-2.42 0.42 t-2.44 -0.46 t-2.12 -1.44 t-1.5 -2.5 t-0.58 -3.64 l0 -0.54 t0.04 -0.54 l3.8 0 z M76.76 12 l0 24.2 l6.12 0 l0 3.8 l-9.88 0 l0 -28 l3.76 0 z M89.64 12 l3.32 9.2 l3.32 -9.2 l4 0 l-5.4 15.08 l0 12.92 l-3.8 0 l0 -12.92 l-5.4 -15.08 l3.96 0 z M105.16000000000001 40 q-1.12 0 -1.88 -0.78 t-0.76 -1.86 t0.76 -1.86 t1.88 -0.78 q1.08 0 1.86 0.78 t0.78 1.86 t-0.78 1.86 t-1.86 0.78 z M110.44 40 l0 -28 l3.76 0 l0 28 l-3.76 0 z M117.39999999999999 31.4 q-0.2 -1.28 -0.3 -2.6 t-0.1 -2.72 q0 -2.32 0.3 -4.62 t0.94 -4.34 q0.84 -2.64 2.28 -4.24 t3.56 -1.6 q1.36 0 2.44 0.72 t1.9 1.98 t1.4 2.94 t0.9 3.64 q0.2 1.28 0.32 2.7 t0.12 2.9 q0 2.36 -0.3 4.66 t-0.98 4.3 q-0.84 2.52 -2.3 4.06 t-3.5 1.54 q-0.12 0 -0.24 -0.02 t-0.24 -0.02 q-1.56 -0.16 -2.64 -1.16 t-1.8 -2.38 t-1.14 -2.92 t-0.62 -2.82 z M121.16 30.8 q0.16 1.16 0.42 2.2 t0.58 1.84 t0.7 1.32 t0.82 0.68 q0.24 0.08 0.36 0.08 q0.44 0 0.8 -0.36 t0.64 -0.84 t0.48 -0.98 t0.32 -0.82 q0.56 -1.68 0.82 -3.68 t0.26 -4.04 q0 -1.32 -0.1 -2.6 t-0.3 -2.44 q-0.2 -1.28 -0.5 -2.38 t-0.66 -1.92 t-0.8 -1.3 t-0.92 -0.48 q-0.64 0 -1.2 0.9 t-1 2.3 q-0.56 1.72 -0.82 3.74 t-0.26 4.06 q0 2.56 0.36 4.72 z"></path></g></svg>